<?xml version="1.0" standalone="no"?><!DOCTYPE svg PUBLIC "-//W3C//DTD SVG 1.1//EN" "http://www.w3.org/Graphics/SVG/1.1/DTD/svg11.dtd"><svg t="1726195773609" class="icon" viewBox="0 0 1024 1024" version="1.1" xmlns="http://www.w3.org/2000/svg" p-id="7295" xmlns:xlink="http://www.w3.org/1999/xlink" width="200" height="200"><path d="M512 1133.37837037C168.81272605 1133.37837037-109.37837037 855.18727395-109.37837037 512-109.37837037 168.81272605 168.81272605-109.37837037 512-109.37837037c343.18727395 0 621.37837037 278.19109642 621.37837037 621.37837037 0 343.18727395-278.19109642 621.37837037-621.37837037 621.37837037zM284.20268942 388.88423182c0 72.05917795-0.14498869 144.11835711 0.08285086 216.17753504 0.06213783 19.22130466 0.4971027 38.50474595 2.05054862 57.64320097 4.80532647 59.23807171 41.21809898 105.57218512 97.86709333 122.80507779 18.66206413 5.67525618 38.52545897 9.73492739 57.95388894 10.21131829 65.61755591 1.55344592 131.27653664 0.45567788 196.89409255 1.98841079 19.34558034 0.45567788 39.51966435 3.68684541 57.62248796 10.29416792 29.53618561 10.79127062 50.58019935 32.31167525 59.96301274 63.17346847 5.21957831 17.19146784 1.86413511 20.91973806-16.05227498 20.91973806-58.24386631 0-116.50844445-0.8285049-174.73159775 0.35211401-37.05486389 0.74565405-66.75674999-11.90975169-92.64751502-38.0904941-7.31155175-7.39440261-20.40192356-10.5634323-31.40031951-12.38614138-11.14338585-1.86413511-13.89816249 4.97102697-7.70509178 14.58167869 26.53285642 41.13524812 63.48415644 67.19171485 112.86302386 68.60017208 69.05584996 1.96769777 138.19454957 0.76636706 207.29182435 0.41425185 21.78966779-0.10356266 35.99852066-14.12600203 37.15842655-36.03994548a83.76180432 83.76180432 0 0 0-2.38194961-26.30501687c-9.50708907-34.59006222-31.58673423-59.50733486-61.76501002-78.02441151-30.32326448-18.59992629-63.85698346-21.78966779-98.26063336-21.95536828-65.65898073-0.26926436-131.31796268 0.53852752-196.89409257-1.78128547-65.90753209-2.29909997-104.43299104-39.80964052-112.46948503-105.0129446-1.07705625-8.76143502-1.84342209-17.64714572-1.86413511-26.51214339-0.10356266-159.90136771-0.08285085-319.84416025-0.06213783-479.76623977 0-19.2834425 2.25767515-21.60325427 21.37541593-17.75070837 26.92639645 5.42670484 45.67131022 22.20392084 58.82381866 45.62988419 12.69683178 22.68031052 15.28590791 47.65972101 15.30662093 73.01195851 0.08285085 137.22105719-0.08285085 274.44211317 0.31068918 411.66317038 0.02071301 10.04561659 1.57415894 21.23042725 6.31734637 29.7018861 3.54185671 6.35877239 13.33892195 9.2378247 20.36049753 13.67032415 2.23696213-6.50375987 6.42091023-12.96609492 6.42091022-19.4698548 0.37282702-146.10676789 0.41425184-292.19282276 0.1657005-438.29959065-0.04142482-30.86179199-4.51534909-61.18505646-20.58833586-88.31857823-21.33399111-36.01923246-51.53297991-59.5487609-94.76020149-62.0756992-33.34730547-1.94698596-47.22475615 11.78547602-47.22475614 45.13278148-0.04142482 81.93909404-0.02071301 163.87818928-0.02071302 245.81728333z" fill="#346061" p-id="7296"></path></svg>